<svg xmlns="http://www.w3.org/2000/svg" viewBox="0 0 800 1000" fill="none">
  <rect width="800" height="1000" fill="#1c1a19"/>
  <g stroke="#faf7f2" stroke-width="1" opacity="0.045">
    <path d="M80 120 V920 M160 120 V920 M240 120 V920 M320 120 V920 M400 120 V920 M480 120 V920 M560 120 V920 M640 120 V920 M720 120 V920"/>
    <path d="M40 160 H760 M40 240 H760 M40 320 H760 M40 400 H760 M40 480 H760 M40 560 H760 M40 640 H760 M40 720 H760 M40 800 H760"/>
  </g>
  <g stroke="#f0b65a" stroke-width="2" opacity="0.5">
    <path d="M32 88 V32 H88"/>
    <path d="M768 712 V768 H712"/>
  </g>
  <g stroke="#faf7f2" stroke-width="1.5">
    <path d="M40 860 H760" stroke-width="2" opacity="0.55"/>
    <path d="M100 860 V868 M160 860 V868 M220 860 V868 M280 860 V868 M340 860 V868 M400 860 V868 M460 860 V868 M520 860 V868 M580 860 V868 M640 860 V868 M700 860 V868" opacity="0.55"/>
    <path d="M240 860 V874 M480 860 V874 M720 860 V874" opacity="0.55"/>
    <path d="M120 838 V860 M200 838 V860 M280 838 V860 M360 838 V860 M440 838 V860 M520 838 V860 M600 838 V860 M680 838 V860" opacity="0.4"/>
  </g>
  <g stroke="#faf7f2" stroke-width="2" opacity="0.34">
    <rect x="120" y="700" width="40" height="160"/>
    <rect x="200" y="620" width="60" height="240"/>
    <rect x="300" y="560" width="40" height="300"/>
    <rect x="380" y="500" width="60" height="360"/>
    <rect x="480" y="430" width="60" height="430"/>
    <rect x="580" y="300" width="80" height="560"/>
    <rect x="700" y="540" width="40" height="320"/>
  </g>
  <g stroke="#faf7f2" stroke-width="1.5" opacity="0.18">
    <path d="M120 740 H160 M120 780 H160 M120 820 H160"/>
    <path d="M200 680 H260 M200 740 H260 M200 800 H260"/>
    <path d="M300 620 H340 M300 680 H340 M300 740 H340 M300 800 H340"/>
    <path d="M380 560 H440 M380 620 H440 M380 680 H440 M380 740 H440 M380 800 H440 M410 500 V860"/>
    <path d="M480 480 H540 M480 540 H540 M480 600 H540 M480 660 H540 M480 720 H540 M480 780 H540"/>
    <path d="M580 340 H660 M580 380 H660 M580 420 H660 M580 460 H660 M580 500 H660 M580 540 H660 M580 580 H660 M580 620 H660 M580 660 H660 M580 700 H660 M580 740 H660 M580 780 H660 M580 820 H660 M600 300 V860 M620 300 V860 M640 300 V860"/>
    <path d="M700 600 H740 M700 660 H740 M700 720 H740 M700 780 H740"/>
  </g>
  <g stroke="#f0b65a">
    <path d="M540 430 V860" stroke-width="2" opacity="0.5"/>
    <path d="M140 700 L230 620 L320 560 L410 500 L510 430 L620 300 L760 222" stroke-width="2" opacity="0.7" stroke-dasharray="7 7"/>
    <path d="M760 212 V232 M750 222 H770" stroke-width="2" opacity="0.85"/>
    <rect x="580" y="296" width="80" height="4" fill="#f0b65a" opacity="0.8"/>
    <rect x="616" y="280" width="8" height="8" fill="#f0b65a" opacity="0.9"/>
  </g>
  <g fill="#f0b65a" opacity="0.7">
    <rect x="116" y="862" width="8" height="8"/>
    <rect x="356" y="862" width="8" height="8"/>
    <rect x="636" y="862" width="8" height="8"/>
  </g>
</svg>